<?xml version="1.0" encoding="utf-8"?>
<!-- Generator: Adobe Illustrator 16.0.0, SVG Export Plug-In . SVG Version: 6.00 Build 0)  -->
<!DOCTYPE svg PUBLIC "-//W3C//DTD SVG 1.1//EN" "http://www.w3.org/Graphics/SVG/1.1/DTD/svg11.dtd">
<svg version="1.1" id="Layer_1" xmlns="http://www.w3.org/2000/svg" xmlns:xlink="http://www.w3.org/1999/xlink" x="0px" y="0px"
	 width="99.999px" height="59.777px" viewBox="0 0 99.999 59.777" enable-background="new 0 0 99.999 59.777" xml:space="preserve">
<path fill="#010101" d="M99.289,58.622c-9.396-0.657-25.461-3.049-30.24-18.291c-4.118-13.1-7.416-18.209-16.809-25.625
	c-2.944-2.35-7.055-3.989-11.077-4.936c-0.119-1.685-0.16-3.043-0.118-3.395c0.195-1.604,0.933-3.519,1.484-4.746
	c0.588-1.311-0.208-1.692-1.679-1.621c-2.226,0.111-6.496,2.966-8.513,4.68c-1.048,0.89-0.683,1.004-1.959,0.767
	C18.198,3.187,7.667,4.174,3.471,4.393C-1.571,5.149-0.2,5.616,1.849,7.694c1.909,1.343,3.352,3.119,5.748,4.07
	c2.662,1.056,5.24,2.32,7.935,3.27c0.614,12.76,5.262,1.468,8.168,2.65c1.859,0.757,3.583,1.694,5.192,2.605
	c-0.039,0.299-0.082,0.606-0.135,0.925c-0.082,0.083-0.247,0.083-0.412,0.083c-1.813,0.165-2.72-0.248-4.12-1.236
	c-1.318-0.988-2.637,0.988-1.483,1.979c1.978,1.401,3.131,1.73,4.862,1.73c0.166,0,0.413,0,0.577,0
	c-0.494,1.648-1.153,2.637-1.895,2.801c-0.413,0.166-1.484,0.084-2.967,0c-1.896,0-2.06,2.885-0.165,2.885
	c0.412,0.081,0.659,0.081,1.647,0.081c0.825,0,1.73,0,2.225-0.164c1.647-0.41,2.883-1.646,3.708-3.871
	c1.4,3.295,4.037,7.168,8.898,11.699c-0.413,5.849,2.307,12.606,1.812,14.418c-1.401,2.719-1.236,4.286-2.884,4.286
	c-0.659,0-1.318,0.574-1.318,1.317v0.905h5.438l3.213-4.283l1.649-8.404c0,0,2.964,4.203,2.964,6.014
	c0,1.65-0.082,4.451-1.234,4.451c-0.659,0-1.318,0.574-1.318,1.317v0.905h6.591l1.73-7.579c0,0,16.645,9.229,43.01,9.229
	C100.195,59.775,100.277,58.623,99.289,58.622z"/>
</svg>
